<?xml version="1.0" standalone="no"?>
<!DOCTYPE svg PUBLIC "-//W3C//DTD SVG 1.1//EN" "http://www.w3.org/Graphics/SVG/1.1/DTD/svg11.dtd" >
<!--
2013-9-30: Created.
-->
<svg>
<metadata>
Created by iconfont
</metadata>
<defs>

<font id="iconfont" horiz-adv-x="1024" >
  <font-face
    font-family="iconfont"
    font-weight="500"
    font-stretch="normal"
    units-per-em="1024"
    ascent="896"
    descent="-128"
  />
    <missing-glyph />
    
    <glyph glyph-name="chenggong" unicode="&#59126;" d="M1070.545455 872.727273l-698.181819-698.181818-232.727272 232.727272-139.636364-139.636363 372.363636-372.363637 837.818182 837.818182z"  horiz-adv-x="1210" />

    
    <glyph glyph-name="bianjan" unicode="&#59125;" d="M381.672727 267.636364h65.163637c9.309091 0 18.618182 4.654545 23.272727 9.309091l204.8 204.8-107.054546 107.054545L358.4 384c-4.654545-4.654545-9.309091-13.963636-9.309091-23.272727v-65.163637c0-13.963636 13.963636-27.927273 32.581818-27.927272zM758.690909 570.181818c4.654545 4.654545 9.309091 13.963636 9.309091 23.272727s-4.654545 18.618182-9.309091 23.272728l-65.163636 65.163636c-4.654545 4.654545-13.963636 9.309091-23.272728 9.309091s-18.618182-4.654545-23.272727-9.309091l-41.890909-41.890909 107.054546-107.054545 46.545454 37.236363zM256 174.545455v-93.09091h512v93.09091h-512z"  horiz-adv-x="1024" />

    
    <glyph glyph-name="delete" unicode="&#59124;" d="M791.272727 570.181818h-139.636363c0 79.127273-60.509091 139.636364-139.636364 139.636364S372.363636 649.309091 372.363636 570.181818H232.727273c-27.927273 0-46.545455-18.618182-46.545455-46.545454s18.618182-46.545455 46.545455-46.545455h46.545454v-325.818182c0-51.2 41.890909-93.090909 93.090909-93.090909h279.272728c51.2 0 93.090909 41.890909 93.090909 93.090909V477.090909h46.545454c27.927273 0 46.545455 18.618182 46.545455 46.545455s-18.618182 46.545455-46.545455 46.545454z m-279.272727 46.545455c27.927273 0 46.545455-18.618182 46.545455-46.545455h-93.09091c0 27.927273 18.618182 46.545455 46.545455 46.545455z m139.636364-465.454546H372.363636V477.090909h279.272728v-325.818182z"  horiz-adv-x="1024" />

    
    <glyph glyph-name="xiazai" unicode="&#59123;" d="M740.072727 430.545455l-65.163636 69.818181L558.545455 384V686.545455h-93.09091V384L344.436364 495.709091 283.927273 430.545455l228.072727-218.763637 228.072727 218.763637zM372.363636 81.454545h279.272728v93.09091H372.363636v-93.09091z"  horiz-adv-x="1024" />

    
    <glyph glyph-name="shiping" unicode="&#59122;" d="M395.636364 249.018182V458.472727c0 46.545455 60.509091 74.472727 97.745454 46.545455l162.909091-107.054546c32.581818-23.272727 32.581818-69.818182 0-93.090909L498.036364 197.818182c-41.890909-23.272727-102.4 4.654545-102.4 51.2z m512 530.618182v-791.272728h-791.272728v791.272728h791.272728z m-93.090909-93.090909h-605.09091v-605.09091h605.09091v605.09091z"  horiz-adv-x="1024" />

    
    <glyph glyph-name="music" unicode="&#59121;" d="M930.909091 802.909091v-502.690909c0-107.054545-83.781818-190.836364-186.181818-190.836364s-186.181818 83.781818-186.181818 190.836364 83.781818 190.836364 186.181818 190.836363c32.581818 0 65.163636-9.309091 93.090909-23.272727V705.163636h-372.363637v-549.236363c0-107.054545-83.781818-190.836364-186.181818-190.836364s-186.181818 83.781818-186.181818 190.836364 83.781818 190.836364 186.181818 190.836363c32.581818 0 65.163636-9.309091 93.090909-23.272727V802.909091h558.545455z"  horiz-adv-x="1024" />

    
    <glyph glyph-name="tex" unicode="&#59120;" d="M651.636364 207.127273H372.363636c-27.927273 0-46.545455-18.618182-46.545454-46.545455s18.618182-46.545455 46.545454-46.545454h279.272728c27.927273 0 46.545455 18.618182 46.545454 46.545454s-18.618182 46.545455-46.545454 46.545455z m-325.818182 139.636363c0-27.927273 18.618182-46.545455 46.545454-46.545454h279.272728c27.927273 0 46.545455 18.618182 46.545454 46.545454s-18.618182 46.545455-46.545454 46.545455H372.363636c-23.272727 0-46.545455-23.272727-46.545454-46.545455z m325.818182 465.454546H139.636364v-837.818182h744.727272V570.181818l-232.727272 242.036364z m139.636363-744.727273H232.727273v651.636364h325.818182v-232.727273h232.727272v-418.909091z"  horiz-adv-x="1024" />

    
    <glyph glyph-name="picture" unicode="&#59119;" d="M651.636364 802.909091H139.636364v-837.818182h744.727272V565.527273L651.636364 802.909091z m139.636363-744.727273H232.727273V709.818182h325.818182v-186.181818h232.727272v-465.454546z m-195.490909 228.072727L744.727273 104.727273H279.272727l116.363637 274.618182 130.327272-190.836364 69.818182 97.745454z m-37.236363 139.636364c0 27.927273 18.618182 46.545455 46.545454 46.545455s46.545455-18.618182 46.545455-46.545455-18.618182-46.545455-46.545455-46.545454c-23.272727 0-46.545455 18.618182-46.545454 46.545454z"  horiz-adv-x="1024" />

    
    <glyph glyph-name="tui" unicode="&#59118;" d="M828.509091 458.472727c-4.654545 23.272727-13.963636 46.545455-27.927273 69.818182-9.309091 23.272727-23.272727 41.890909-37.236363 60.509091-18.618182 18.618182-37.236364 37.236364-55.854546 51.2-9.309091 9.309091-23.272727 9.309091-32.581818 9.309091-13.963636 0-23.272727-9.309091-27.927273-18.618182-9.309091-9.309091-9.309091-23.272727-9.309091-32.581818 0-13.963636 9.309091-23.272727 18.618182-32.581818 32.581818-23.272727 55.854545-51.2 69.818182-83.781818 9.309091-27.927273 18.618182-60.509091 18.618182-97.745455 0-32.581818-4.654545-60.509091-18.618182-88.436364-13.963636-27.927273-27.927273-51.2-51.2-74.472727-23.272727-23.272727-46.545455-37.236364-74.472727-51.2-27.927273-13.963636-55.854545-18.618182-88.436364-18.618182s-60.509091 4.654545-88.436364 18.618182c-27.927273 13.963636-51.2 27.927273-74.472727 51.2-23.272727 23.272727-37.236364 46.545455-51.2 74.472727-13.963636 23.272727-18.618182 55.854545-18.618182 88.436364 0 37.236364 9.309091 74.472727 27.927273 107.054545 13.963636 32.581818 41.890909 60.509091 69.818182 83.781819 9.309091 9.309091 18.618182 18.618182 18.618182 27.927272 0 13.963636 0 23.272727-9.309091 32.581819-4.654545 13.963636-13.963636 18.618182-27.927273 18.618181s-23.272727 0-32.581818-9.309091c-23.272727-13.963636-41.890909-27.927273-60.509091-51.2-13.963636-18.618182-27.927273-37.236364-41.890909-60.50909-13.963636-23.272727-23.272727-46.545455-27.927273-69.818182-4.654545-27.927273-9.309091-55.854545-9.309091-79.127273 0-46.545455 9.309091-88.436364 27.927273-125.672727 18.618182-37.236364 41.890909-74.472727 69.818182-102.4 27.927273-27.927273 65.163636-51.2 102.4-69.818182 37.236364-18.618182 79.127273-27.927273 125.672727-27.927273 46.545455 0 88.436364 9.309091 125.672727 27.927273 37.236364 18.618182 74.472727 41.890909 102.4 69.818182 27.927273 27.927273 51.2 65.163636 69.818182 102.4 18.618182 37.236364 27.927273 79.127273 27.927273 125.672727 0 23.272727-4.654545 51.2-9.309091 74.472727z m-311.854546-97.745454c13.963636 0 23.272727 4.654545 32.581819 13.963636 9.309091 9.309091 13.963636 18.618182 13.963636 32.581818V667.927273c0 13.963636-4.654545 23.272727-13.963636 32.581818-13.963636 4.654545-23.272727 9.309091-32.581819 9.309091-13.963636 0-23.272727-4.654545-32.581818-13.963637-9.309091-9.309091-13.963636-18.618182-13.963636-32.581818v-260.654545c0-13.963636 4.654545-23.272727 13.963636-32.581818 9.309091-4.654545 18.618182-9.309091 32.581818-9.309091z"  horiz-adv-x="1024" />

    
    <glyph glyph-name="mima" unicode="&#59117;" d="M512 709.818182c88.436364 0 162.909091-74.472727 162.909091-162.909091L698.181818 477.090909h93.090909v-418.909091H232.727273V477.090909h93.090909l23.272727 69.818182C349.090909 635.345455 423.563636 709.818182 512 709.818182z m186.181818-325.818182H325.818182v-232.727273h372.363636v232.727273z m-186.181818-46.545455c18.618182 0 37.236364-9.309091 41.890909-27.927272 9.309091-18.618182 4.654545-37.236364-9.309091-51.2L558.545455 197.818182h-93.09091l13.963637 60.509091c-13.963636 13.963636-18.618182 32.581818-9.309091 51.2 4.654545 18.618182 23.272727 27.927273 41.890909 27.927272z m0 279.272728c-55.854545 0-97.745455-13.963636-97.745455-69.818182V477.090909h195.49091V546.909091c0 51.2-41.890909 60.509091-97.745455 69.818182z m0 0"  horiz-adv-x="1024" />

    
    <glyph glyph-name="platform_upload" unicode="&#59116;" d="M512 686.545455v93.090909H93.090909v-791.272728h837.818182v698.181819h-418.909091z m325.818182-605.09091H186.181818v605.09091h232.727273v-93.09091h418.909091v-512z m-432.872727 176.872728l60.50909 60.509091v-195.490909h93.09091v195.490909l60.50909-60.509091 65.163637 65.163636-176.872727 172.218182-172.218182-176.872727 69.818182-60.509091z"  horiz-adv-x="1024" />

    
    <glyph glyph-name="platform_empower" unicode="&#59115;" d="M651.636364 802.909091c-153.6 0-279.272727-125.672727-279.272728-279.272727 0-60.509091 18.618182-116.363636 51.2-162.909091L93.090909 30.254545 158.254545-34.909091l65.163637 65.163636L288.581818-34.909091l65.163637 65.163636-65.163637 65.163637 93.090909 93.090909 65.163637-65.163636 65.163636 65.163636-65.163636 65.163636 46.545454 41.890909c46.545455-32.581818 102.4-51.2 158.254546-51.2 153.6 0 279.272727 125.672727 279.272727 279.272728s-125.672727 279.272727-279.272727 279.272727z m0-465.454546c-102.4 0-186.181818 83.781818-186.181819 186.181819s83.781818 186.181818 186.181819 186.181818 186.181818-83.781818 186.181818-186.181818-83.781818-186.181818-186.181818-186.181819z"  horiz-adv-x="1024" />

    
    <glyph glyph-name="platform_journal1" unicode="&#59114;" d="M93.090909 709.818182v-651.636364h837.818182V709.818182H93.090909z m93.090909-558.545455V528.290909l325.818182-325.818182 325.818182 325.818182v-372.363636H186.181818z m651.636364 451.490909l-325.818182-279.272727-325.818182 279.272727V616.727273h651.636364v-13.963637z"  horiz-adv-x="1024" />

    
    <glyph glyph-name="platform_journal" unicode="&#59113;" d="M209.454545 197.818182h-46.545454v-232.727273h372.363636v232.727273h-46.545454c0 186.181818-279.272727 186.181818-279.272728 0z m186.181819 0h-93.090909c0 46.545455 93.090909 46.545455 93.090909 0z m46.545454-139.636364h-186.181818v46.545455h186.181818v-46.545455z m418.909091 502.690909V-34.909091h-232.727273v93.090909h139.636364V477.090909h-186.181818V709.818182h-325.818182v-279.272727h-93.090909V802.909091h512l186.181818-242.036364z"  horiz-adv-x="1024" />

    
    <glyph glyph-name="platform_notice" unicode="&#59112;" d="M861.090909 314.181818v186.181818c0 162.909091-107.054545 256-228.072727 274.618182 0 0-4.654545 0-4.654546 4.654546V868.072727s0 4.654545-4.654545 4.654546h-83.781818s-4.654545 0-4.654546-4.654546v-88.436363s0-4.654545-4.654545-4.654546C409.6 756.363636 302.545455 663.272727 302.545455 500.363636v-186.181818c0-51.2-41.890909-93.090909-88.436364-93.090909 0 0-4.654545 0-4.654546-4.654545v-88.436364s0-4.654545 4.654546-4.654545h223.418182s4.654545 0 4.654545-4.654546v-37.236364c0-69.818182 46.545455-134.981818 116.363637-144.290909 88.436364-13.963636 162.909091 51.2 162.90909 139.636364v46.545455h228.072728s4.654545 0 4.654545 4.654545v88.436364s0 4.654545-4.654545 4.654545c-46.545455 0-88.436364 41.890909-88.436364 93.090909z m-232.727273-232.727273c0-27.927273-18.618182-46.545455-46.545454-46.545454s-46.545455 18.618182-46.545455 46.545454v46.545455h93.090909v-46.545455z m134.981819 139.636364H400.290909s-4.654545 0-4.654545 4.654546V500.363636c0 125.672727 93.090909 186.181818 186.181818 186.181819s186.181818-60.509091 186.181818-186.181819l-4.654545-279.272727c4.654545 0 4.654545 0 0 0z"  horiz-adv-x="1024" />

    
    <glyph glyph-name="user_menu" unicode="&#59111;" d="M977.454545 686.545455v-93.09091H279.272727v93.09091h698.181818z m-861.090909 46.545454C79.127273 733.090909 46.545455 700.509091 46.545455 663.272727s32.581818-69.818182 69.818181-69.818182S186.181818 626.036364 186.181818 663.272727s-32.581818 69.818182-69.818182 69.818182z m162.909091-418.909091h698.181818v93.090909H279.272727v-93.090909z m-162.909091 139.636364c-37.236364 0-69.818182-32.581818-69.818181-69.818182s32.581818-69.818182 69.818181-69.818182S186.181818 346.763636 186.181818 384s-32.581818 69.818182-69.818182 69.818182z m162.909091-418.909091h698.181818v93.090909H279.272727v-93.090909z m-162.909091 139.636364c-37.236364 0-69.818182-32.581818-69.818181-69.818182s32.581818-69.818182 69.818181-69.818182S186.181818 67.490909 186.181818 104.727273s-32.581818 69.818182-69.818182 69.818182z"  horiz-adv-x="1024" />

    
    <glyph glyph-name="user_privileges" unicode="&#59110;" d="M819.2 588.8C819.2 756.363636 679.563636 896 512 896 339.781818 896 204.8 761.018182 204.8 588.8c0-102.4 51.2-195.490909 130.327273-251.345455C153.6 276.945455 18.618182 114.036364 0-81.454545c0-27.927273 13.963636-46.545455 37.236364-46.545455H46.545455c23.272727 0 37.236364 18.618182 37.236363 37.236364 18.618182 209.454545 200.145455 372.363636 418.909091 377.018181h9.309091c65.163636 0 125.672727 18.618182 176.872727 55.854546 79.127273 51.2 130.327273 144.290909 130.327273 246.690909zM512 370.036364c-121.018182 0-223.418182 97.745455-223.418182 218.763636S390.981818 812.218182 512 812.218182c121.018182 0 223.418182-97.745455 223.418182-218.763637-4.654545-125.672727-102.4-223.418182-223.418182-223.418181z m465.454545-51.2a154.530909 154.530909 0 0 1-218.763636 0c-51.2-51.2-55.854545-125.672727-23.272727-181.527273l-190.836364-190.836364c-18.618182-18.618182-18.618182-41.890909 0-60.509091 9.309091-9.309091 18.618182-13.963636 27.927273-13.963636s23.272727 4.654545 27.927273 13.963636l79.127272 79.127273 65.163637-65.163636c9.309091-9.309091 18.618182-13.963636 27.927272-13.963637 9.309091 0 23.272727 4.654545 27.927273 13.963637 18.618182 18.618182 18.618182 41.890909 0 60.509091L744.727273 20.945455l51.2 51.2c23.272727-13.963636 46.545455-18.618182 74.472727-18.618182 41.890909 0 79.127273 13.963636 107.054545 46.545454 60.509091 60.509091 60.509091 158.254545 0 218.763637z m-60.50909-158.254546c-27.927273-27.927273-69.818182-27.927273-97.745455 0-27.927273 27.927273-27.927273 69.818182 0 97.745455 13.963636 13.963636 32.581818 18.618182 46.545455 18.618182 18.618182 0 37.236364-4.654545 46.545454-18.618182 32.581818-27.927273 32.581818-74.472727 4.654546-97.745455z"  horiz-adv-x="1024" />

    
    <glyph glyph-name="user_userset" unicode="&#59109;" d="M819.2 588.8c0 167.563636-139.636364 307.2-307.2 307.2S204.8 761.018182 204.8 588.8c0-102.4 51.2-195.490909 130.327273-251.345455-181.527273-65.163636-316.509091-228.072727-335.127273-423.563636 0-23.272727 13.963636-41.890909 37.236364-41.890909h9.309091c23.272727 0 37.236364 18.618182 37.236363 37.236364 18.618182 209.454545 200.145455 372.363636 418.909091 377.018181h4.654546c65.163636 0 125.672727 18.618182 176.872727 55.854546 83.781818 51.2 134.981818 144.290909 134.981818 246.690909z m-307.2-218.763636c-121.018182 0-223.418182 97.745455-223.418182 218.763636s97.745455 218.763636 223.418182 218.763636 223.418182-97.745455 223.418182-218.763636c-4.654545-121.018182-102.4-218.763636-223.418182-218.763636z m349.090909-204.8c-32.581818 0-60.509091-27.927273-60.509091-60.509091 0-32.581818 27.927273-55.854545 60.509091-55.854546s60.509091 27.927273 60.509091 55.854546c0 32.581818-27.927273 60.509091-60.509091 60.509091z m181.527273-97.745455V104.727273c0 13.963636 0 23.272727-4.654546 32.581818l4.654546 4.654545c18.618182 9.309091 27.927273 27.927273 27.927273 51.2 0 32.581818-27.927273 60.509091-60.509091 60.509091-9.309091 0-23.272727-4.654545-32.581819-9.309091l-4.654545-4.654545c-13.963636 13.963636-32.581818 23.272727-55.854545 27.927273v9.309091c0 32.581818-27.927273 60.509091-60.509091 60.50909s-60.509091-27.927273-60.509091-60.50909v-9.309091c-18.618182-4.654545-37.236364-18.618182-55.854546-27.927273l-4.654545 4.654545c-9.309091 4.654545-18.618182 9.309091-32.581818 9.309091-32.581818 0-60.509091-27.927273-60.509091-60.509091 0-23.272727 13.963636-37.236364 27.927272-51.2l4.654546-4.654545c-4.654545-9.309091-4.654545-23.272727-4.654546-32.581818 0-13.963636 0-23.272727 4.654546-32.581818l-4.654546-4.654546c-18.618182-9.309091-27.927273-27.927273-27.927272-51.2 0-32.581818 27.927273-60.509091 60.509091-60.509091 9.309091 0 23.272727 4.654545 32.581818 9.309091l4.654545 4.654546c13.963636-13.963636 32.581818-23.272727 55.854546-27.927273v-9.309091c0-32.581818 27.927273-55.854545 60.509091-55.854546s60.509091 27.927273 60.509091 55.854546v9.309091c18.618182 4.654545 37.236364 18.618182 55.854545 27.927273l4.654545-4.654546c9.309091-4.654545 18.618182-9.309091 32.581819-9.309091 32.581818 0 60.509091 27.927273 60.509091 60.509091 0 23.272727-13.963636 41.890909-27.927273 51.2zM861.090909-11.636364c-65.163636 0-121.018182 51.2-121.018182 116.363637s55.854545 116.363636 121.018182 116.363636c65.163636 0 121.018182-51.2 121.018182-116.363636s-55.854545-116.363636-121.018182-116.363637z"  horiz-adv-x="1070" />

    
    <glyph glyph-name="user_user" unicode="&#59108;" d="M688.872727 351.418182C749.381818 402.618182 791.272727 481.745455 791.272727 570.181818c0 153.6-125.672727 279.272727-279.272727 279.272727S232.727273 723.781818 232.727273 570.181818c0-88.436364 41.890909-167.563636 102.4-218.763636C167.563636 290.909091 46.545455 132.654545 46.545455-81.454545h93.090909c0 232.727273 167.563636 372.363636 372.363636 372.363636s372.363636-139.636364 372.363636-372.363636h93.090909c0 214.109091-121.018182 372.363636-288.581818 432.872727zM512 384c-102.4 0-186.181818 83.781818-186.181818 186.181818s83.781818 186.181818 186.181818 186.181818 186.181818-83.781818 186.181818-186.181818-83.781818-186.181818-186.181818-186.181818z"  horiz-adv-x="1024" />

    
    <glyph glyph-name="user_branch" unicode="&#59107;" d="M186.181818 244.363636H93.090909v186.181819h372.363636V523.636364h93.09091v-93.090909h372.363636v-186.181819h-93.090909v93.090909h-279.272727v-93.090909h-93.09091v93.090909H186.181818v-93.090909z m-139.636363-279.272727h186.181818v186.181818H46.545455v-186.181818z m744.727272 186.181818v-186.181818h186.181818v186.181818h-186.181818z m-372.363636-186.181818h186.181818v186.181818H418.909091v-186.181818z m186.181818 837.818182H418.909091v-186.181818h186.181818V802.909091z"  horiz-adv-x="1024" />

    
    <glyph glyph-name="deploy_configure" unicode="&#59106;" d="M256 244.363636h93.090909v-93.090909h-93.090909v-186.181818h-93.090909v186.181818h-93.090909v93.090909h93.090909V802.909091h93.090909v-558.545455z m279.272727 558.545455h-93.090909v-325.818182h-93.090909v-93.090909h93.090909v-418.909091h93.090909v418.909091h93.090909V477.090909h-93.090909V802.909091z m325.818182-558.545455V802.909091h-93.090909v-558.545455h-93.090909v-93.090909h93.090909v-186.181818h93.090909v186.181818h93.090909v93.090909h-93.090909z"  horiz-adv-x="1024" />

    
    <glyph glyph-name="deploy_dictionary" unicode="&#59105;" d="M837.818182 477.090909H186.181818V570.181818h651.636364v-93.090909z m0 279.272727H186.181818v-93.090909h651.636364V756.363636z m93.090909-372.363636v-372.363636H93.090909v372.363636h837.818182z m-93.090909-93.090909H186.181818v-186.181818h651.636364v186.181818zM288.581818 151.272727c27.927273 0 46.545455 18.618182 46.545455 46.545455s-18.618182 46.545455-46.545455 46.545454-46.545455-18.618182-46.545454-46.545454c0-23.272727 18.618182-46.545455 46.545454-46.545455z"  horiz-adv-x="1024" />

    
    <glyph glyph-name="deploy_evaluate" unicode="&#59104;" d="M246.690909 290.909091L139.636364 104.727273l102.4-186.181818h209.454545l107.054546 186.181818-102.4 186.181818H246.690909zM418.909091-34.909091H279.272727l-93.090909 139.636364 93.090909 139.636363h139.636364l93.090909-139.636363-93.090909-139.636364z m451.490909 637.672727l-251.345455 232.727273c-9.309091 9.309091-23.272727 13.963636-32.581818 13.963636H232.727273c-51.2 0-93.090909-41.890909-93.090909-93.090909v-325.818181c0-27.927273 18.618182-46.545455 46.545454-46.545455s46.545455 18.618182 46.545455 46.545455V709.818182c0 27.927273 18.618182 46.545455 46.545454 46.545454h232.727273v-186.181818c0-51.2 41.890909-93.090909 93.090909-93.090909h186.181818v-372.363636c0-27.927273-18.618182-46.545455-46.545454-46.545455h-46.545455c-27.927273 0-46.545455-18.618182-46.545454-46.545454s18.618182-46.545455 46.545454-46.545455h93.090909c51.2 0 93.090909 41.890909 93.090909 93.090909V570.181818c0 13.963636-4.654545 27.927273-13.963636 32.581818zM349.090909 104.727273c-13.963636 0-23.272727-9.309091-23.272727-23.272728s9.309091-23.272727 23.272727-23.272727 23.272727 9.309091 23.272727 23.272727-9.309091 23.272727-23.272727 23.272728z"  horiz-adv-x="1024" />

    
    <glyph glyph-name="deploy_save" unicode="&#59103;" d="M139.636364 733.090909v-605.090909c0-79.127273 13.963636-93.090909 93.090909-93.090909h558.545454c79.127273 0 93.090909 13.963636 93.090909 93.090909v605.090909H139.636364z m605.090909-651.636364h-237.381818l4.654545 93.09091H372.363636v-93.09091H279.272727v186.181819h465.454546v-186.181819z m46.545454 325.818182h-46.545454v-46.545454H279.272727v46.545454H232.727273v279.272728h558.545454v-279.272728z"  horiz-adv-x="1024" />

    
    <glyph glyph-name="deploy_relation" unicode="&#59102;" d="M763.345455 286.254545L628.363636 523.636364c37.236364 32.581818 65.163636 83.781818 65.163637 139.636363 0 102.4-83.781818 186.181818-186.181818 186.181818s-186.181818-83.781818-186.181819-186.181818c0-55.854545 27.927273-107.054545 65.163637-139.636363l-134.981818-232.727273C134.981818 300.218182 46.545455 211.781818 46.545455 104.727273c0-102.4 83.781818-186.181818 186.181818-186.181818 88.436364 0 158.254545 46.545455 181.527272 139.636363h200.145455c18.618182-93.090909 93.090909-139.636364 181.527273-139.636363 102.4 0 186.181818 83.781818 186.181818 186.181818-4.654545 111.709091-102.4 200.145455-218.763636 181.527272zM507.345455 756.363636c51.2 0 93.090909-41.890909 93.090909-93.090909s-41.890909-93.090909-93.090909-93.090909-93.090909 41.890909-93.09091 93.090909 41.890909 93.090909 93.09091 93.090909zM232.727273 11.636364c-51.2 0-93.090909 41.890909-93.090909 93.090909s41.890909 93.090909 93.090909 93.090909 93.090909-41.890909 93.090909-93.090909-41.890909-93.090909-93.090909-93.090909z m377.018182 139.636363H414.254545c-9.309091 46.545455-37.236364 79.127273-74.472727 107.054546l130.327273 223.418182c23.272727-4.654545 51.2-4.654545 74.472727 0l130.327273-228.072728c-27.927273-27.927273-51.2-55.854545-65.163636-102.4z m181.527272-139.636363c-51.2 0-93.090909 41.890909-93.090909 93.090909s41.890909 93.090909 93.090909 93.090909 93.090909-41.890909 93.090909-93.090909-41.890909-93.090909-93.090909-93.090909z"  horiz-adv-x="1024" />

    
    <glyph glyph-name="assets_statistics" unicode="&#59101;" d="M884.363636 34.909091H232.727273v698.181818h651.636363v93.090909H139.636364c4.654545-847.127273-4.654545-344.436364 0-884.363636h744.727272v93.090909z m0 93.090909v97.745455h-139.636363v-97.745455h139.636363z m0 279.272727h-232.727272v-97.745454h232.727272v97.745454z m0 186.181818h-93.090909v-97.745454h93.090909V593.454545z m-279.272727-32.581818l-27.927273 32.581818L442.181818 477.090909 316.509091 593.454545l-37.236364-32.581818L418.909091 430.545455v-23.272728H325.818182v-46.545454h93.090909v-46.545455H372.363636v-46.545454h46.545455v-93.090909h46.545454v93.090909h46.545455v46.545454h-46.545455v46.545455h93.09091v46.545454h-93.09091V430.545455l139.636364 130.327272z"  horiz-adv-x="1024" />

    
    <glyph glyph-name="assets_upgrade" unicode="&#59100;" d="M139.636364 11.636364V756.363636h744.727272v-744.727272H139.636364zM791.272727 663.272727H232.727273v-558.545454h558.545454V663.272727z m-279.272727-83.781818l-181.527273-218.763636L395.636364 290.909091l74.472727 111.709091V197.818182h93.090909v209.454545l74.472727-111.709091 65.163637 69.818182L512 579.490909z"  horiz-adv-x="1024" />

    
    <glyph glyph-name="assets_store" unicode="&#59099;" d="M139.636364 733.090909v-605.090909c0-79.127273 13.963636-93.090909 93.090909-93.090909h558.545454c79.127273 0 93.090909 13.963636 93.090909 93.090909v605.090909H139.636364z m605.090909-651.636364h-237.381818l4.654545 93.09091H372.363636v-93.09091H279.272727v186.181819h465.454546v-186.181819z m46.545454 325.818182h-46.545454v-46.545454H279.272727v46.545454H232.727273v279.272728h558.545454v-279.272728z"  horiz-adv-x="1024" />

    
    <glyph glyph-name="assets_equipment" unicode="&#59098;" d="M907.636364 598.109091l-372.363637 228.072727-418.909091-186.181818v-516.654545l418.909091-181.527273 37.236364 13.963636h9.309091v4.654546l330.472727 167.563636V598.109091z m-372.363637-158.254546l-107.054545 46.545455 251.345454 139.636364 74.472728-51.2-218.763637-134.981819zM605.090909 663.272727L325.818182 523.636364 209.454545 593.454545l325.818182 139.636364L605.090909 663.272727zM209.454545 500.363636l93.09091-46.545454v-139.636364h93.090909v93.090909l93.090909-46.545454v-279.272728l-279.272728 93.09091v325.818181z m372.363637-418.909091v279.272728l232.727273 139.636363v-325.818181l-232.727273-93.09091z m0 0"  horiz-adv-x="1024" />

    
    <glyph glyph-name="assets_guarantee" unicode="&#59097;" d="M195.490909 244.363636V709.818182h558.545455v-279.272727h93.090909V802.909091h-744.727273v-563.2c0-74.472727 32.581818-144.290909 88.436364-195.490909S325.818182-34.909091 404.945455-34.909091h69.818181v93.090909l-69.818181 4.654546c-107.054545 0-209.454545 83.781818-209.454546 181.527272z m707.490909 37.236364l-9.309091 9.309091-102.4-111.709091c-9.309091-4.654545-18.618182-9.309091-27.927272-9.309091-9.309091 0-18.618182 4.654545-27.927273 9.309091-9.309091 4.654545-13.963636 13.963636-13.963637 23.272727s4.654545 18.618182 13.963637 23.272728l111.709091 107.054545c-65.163636 37.236364-153.6 13.963636-200.145455-41.890909-32.581818-37.236364-41.890909-88.436364-23.272727-134.981818L507.345455 58.181818l93.090909-83.781818 116.363636 107.054545c46.545455-13.963636 102.4-9.309091 144.290909 18.618182 65.163636 41.890909 79.127273 121.018182 41.890909 181.527273zM660.945455 616.727273h-372.363637v-93.090909h372.363637V616.727273z m-372.363637-279.272728h232.727273v93.09091h-232.727273v-93.09091z"  horiz-adv-x="1024" />

    
    <glyph glyph-name="assets_law" unicode="&#59096;" d="M721.454545 686.545455h-372.363636v-93.09091h372.363636v93.09091z m-181.527272 186.181818H162.909091v-930.909091h744.727273V872.727273h-367.709091z m274.618182-837.818182h-558.545455v744.727273h558.545455v-744.727273z m-465.454546 46.545454h372.363636v232.727273h-372.363636v-232.727273z"  horiz-adv-x="1024" />

    
    <glyph glyph-name="supervise_statistics" unicode="&#59095;" d="M837.818182 174.545455H232.727273v465.454545c0 18.618182 0 46.545455-60.509091 46.545455-18.618182 0-32.581818-13.963636-32.581818-32.581819v-539.927272c0-18.618182 13.963636-32.581818 32.581818-32.581819h674.909091c18.618182 0 32.581818 13.963636 37.236363 32.581819 4.654545 41.890909-27.927273 60.509091-46.545454 60.509091z m-418.909091 279.272727H325.818182v-232.727273h93.090909v232.727273z m186.181818 46.545454h-93.090909v-279.272727h93.090909v279.272727z m186.181818-139.636363h-93.090909v-139.636364h93.090909v139.636364z"  horiz-adv-x="1024" />

    
    <glyph glyph-name="supervise_check" unicode="&#59094;" d="M861.090909 314.181818s-23.272727-27.927273-41.890909-23.272727c-13.963636 9.309091-4.654545 162.909091-4.654545 162.909091s13.963636-4.654545 0 139.636363L512 719.127273 209.454545 593.454545c-4.654545-51.2-9.309091-121.018182 0-186.181818 27.927273-167.563636 125.672727-297.890909 302.545455-363.054545 41.890909 18.618182 51.2 9.309091 69.818182 37.236363 4.654545 13.963636 55.854545-27.927273 60.509091-55.854545 4.654545-13.963636 4.654545-27.927273-4.654546-37.236364-46.545455-37.236364-55.854545-18.618182-116.363636-46.545454h-23.272727c-200.145455 83.781818-325.818182 228.072727-367.709091 432.872727-13.963636 83.781818-18.618182 167.563636-9.309091 251.345455 4.654545 13.963636 13.963636 18.618182 18.618182 23.272727l363.054545 176.872727h23.272727L884.363636 649.309091c9.309091-4.654545 13.963636-9.309091 13.963637-23.272727 4.654545-51.2 9.309091-88.436364 4.654545-172.218182 4.654545-116.363636-41.890909-139.636364-41.890909-139.636364z m-339.781818-111.709091c-41.890909 0-93.090909 23.272727-125.672727 55.854546C325.818182 328.145455 325.818182 439.854545 400.290909 509.672727c69.818182 69.818182 176.872727 69.818182 251.345455 0 60.509091-60.509091 65.163636-158.254545 13.963636-232.727272l111.709091-116.363637c9.309091-9.309091 9.309091-27.927273 0-37.236363-4.654545-4.654545-9.309091-4.654545-23.272727-4.654546-9.309091 0-13.963636 0-23.272728 4.654546l-107.054545 111.70909c-32.581818-23.272727-65.163636-32.581818-102.4-32.581818z m88.436364 269.963637c-23.272727 27.927273-55.854545 37.236364-88.436364 37.236363s-65.163636-18.618182-88.436364-37.236363c-46.545455-51.2-46.545455-125.672727 0-176.872728 46.545455-46.545455 125.672727-46.545455 172.218182 0 51.2 51.2 51.2 125.672727 4.654546 176.872728z m0 0"  horiz-adv-x="1024" />

    
    <glyph glyph-name="supervise_daily" unicode="&#59093;" d="M791.272727 733.090909h-107.054545c-13.963636 27.927273-46.545455 46.545455-79.127273 46.545455H418.909091c-32.581818 0-65.163636-18.618182-79.127273-46.545455H232.727273c-51.2 0-93.090909-41.890909-93.090909-93.090909v-558.545455c0-51.2 41.890909-93.090909 93.090909-93.090909h558.545454c51.2 0 93.090909 41.890909 93.090909 93.090909v558.545455c0 51.2-41.890909 93.090909-93.090909 93.090909z m-372.363636-46.545454h186.181818v-46.545455H418.909091v46.545455z m372.363636-605.09091H232.727273v558.545455h93.090909c0-51.2 41.890909-93.090909 93.090909-93.090909h186.181818c51.2 0 93.090909 41.890909 93.090909 93.090909h93.090909v-558.545455z m-186.181818 325.818182H418.909091c-27.927273 0-46.545455-18.618182-46.545455-46.545454s18.618182-46.545455 46.545455-46.545455h186.181818c27.927273 0 46.545455 18.618182 46.545455 46.545455s-18.618182 46.545455-46.545455 46.545454z m-93.090909-139.636363H418.909091c-27.927273 0-46.545455-18.618182-46.545455-46.545455s18.618182-46.545455 46.545455-46.545454h93.090909c27.927273 0 46.545455 18.618182 46.545455 46.545454s-18.618182 46.545455-46.545455 46.545455z"  horiz-adv-x="1024" />

    
    <glyph glyph-name="supervise_evaluate" unicode="&#59092;" d="M940.218182 565.527273c-23.272727 55.854545-55.854545 107.054545-97.745455 148.945454-41.890909 41.890909-93.090909 74.472727-148.945454 97.745455C651.636364 830.836364 605.090909 844.8 558.545455 849.454545c-23.272727 4.654545-46.545455-18.618182-46.545455-41.890909s18.618182-41.890909 37.236364-41.890909c88.436364-9.309091 167.563636-46.545455 232.727272-111.709091 69.818182-69.818182 111.709091-167.563636 111.709091-269.963636 0-102.4-41.890909-195.490909-111.709091-269.963636-69.818182-69.818182-167.563636-111.709091-269.963636-111.709091-102.4 0-195.490909 41.890909-269.963636 111.709091-69.818182 69.818182-111.709091 167.563636-111.709091 269.963636 0 83.781818 27.927273 167.563636 79.127272 232.727273 13.963636 18.618182 9.309091 41.890909-4.654545 55.854545-18.618182 18.618182-46.545455 18.618182-60.509091 0C79.127273 588.8 46.545455 491.054545 46.545455 384c0-65.163636 13.963636-125.672727 37.236363-181.527273 23.272727-55.854545 55.854545-107.054545 97.745455-148.945454 41.890909-41.890909 93.090909-74.472727 148.945454-97.745455 55.854545-23.272727 121.018182-37.236364 181.527273-37.236363 60.509091 0 125.672727 13.963636 181.527273 37.236363 55.854545 23.272727 107.054545 55.854545 148.945454 97.745455 41.890909 41.890909 74.472727 93.090909 97.745455 148.945454 23.272727 55.854545 37.236364 116.363636 37.236363 181.527273s-13.963636 125.672727-37.236363 181.527273zM372.363636 337.454545h46.545455l46.545454-93.090909h93.09091L418.909091 570.181818H325.818182l-93.090909-325.818182h139.636363v93.090909z m0 139.636364l46.545455-93.090909H372.363636V477.090909z m279.272728 0v-93.090909h-93.090909v-46.545455h93.090909v-93.090909h46.545454v93.090909h93.090909v46.545455h-93.090909V477.090909h-46.545454z"  horiz-adv-x="1024" />

    
    <glyph glyph-name="data_relation" unicode="&#59091;" d="M302.545455 430.545455h418.90909c27.927273 0 46.545455-18.618182 46.545455-46.545455 0-60.509091 9.309091-46.545455-465.454545-46.545455-27.927273 0-46.545455 18.618182-46.545455 46.545455s18.618182 46.545455 46.545455 46.545455z m363.054545 232.727272h-32.581818c-27.927273 0-46.545455-18.618182-46.545455-46.545454s18.618182-46.545455 46.545455-46.545455h37.236363c97.745455 0 186.181818-69.818182 195.49091-167.563636 9.309091-111.709091-74.472727-204.8-186.181819-204.8h-46.545454c-27.927273 0-46.545455-18.618182-46.545455-46.545455 0-51.2 46.545455-46.545455 93.090909-46.545454 158.254545 0 283.927273 130.327273 279.272728 283.927272-9.309091 153.6-144.290909 274.618182-293.236364 274.618182zM395.636364 197.818182h-46.545455c-107.054545 0-195.490909 93.090909-186.181818 204.8C172.218182 500.363636 260.654545 570.181818 358.4 570.181818h37.236364c27.927273 0 46.545455 18.618182 46.545454 46.545455s-18.618182 46.545455-46.545454 46.545454h-37.236364c-153.6 0-288.581818-116.363636-293.236364-269.963636-4.654545-158.254545 121.018182-283.927273 279.272728-283.927273h46.545454c27.927273 0 46.545455 18.618182 46.545455 46.545455 4.654545 23.272727-13.963636 41.890909-41.890909 41.890909z"  horiz-adv-x="1024" />

    
    <glyph glyph-name="data_vidg" unicode="&#59090;" d="M870.4 621.381818l-111.709091 148.945455c-9.309091 9.309091-18.618182 4.654545-32.581818 4.654545H232.727273c-51.2 0-93.090909-27.927273-93.090909-79.127273v-605.090909c0-51.2 41.890909-107.054545 93.090909-107.054545h558.545454c51.2 0 93.090909 55.854545 93.090909 107.054545V588.8c0 13.963636-4.654545 23.272727-13.963636 32.581818zM791.272727 141.963636c0-27.927273 74.472727-60.509091 46.545455-60.509091H279.272727c-27.927273 0-46.545455 37.236364-46.545454 60.509091v512c0 27.927273 18.618182 32.581818 46.545454 32.581819h372.363637v-79.127273c0-51.2 41.890909-107.054545 93.090909-107.054546h46.545454v-358.4zM628.363636 337.454545l-186.181818-107.054545c-32.581818-18.618182-69.818182 4.654545-69.818182 41.890909V481.745455c0 37.236364 37.236364 60.509091 69.818182 41.890909l186.181818-107.054546c32.581818-18.618182 32.581818-60.509091 0-79.127273z"  horiz-adv-x="1024" />

    
    <glyph glyph-name="data_police" unicode="&#59089;" d="M162.909091 314.181818v-232.727273c0-18.618182 23.272727-46.545455 46.545454-46.545454h605.09091c23.272727 0 46.545455 27.927273 46.545454 46.545454v232.727273c0 204.8-134.981818 325.818182-372.363636 325.818182s-325.818182-121.018182-325.818182-325.818182z m605.090909 0v-186.181818h-325.818182v186.181818c0 4.654545-13.963636 18.618182-18.618182 18.618182H363.054545c-9.309091 0-13.963636-13.963636-13.963636-18.618182v-186.181818h-93.090909v186.181818c0 158.254545 102.4 228.072727 232.727273 232.727273 125.672727 4.654545 279.272727-74.472727 279.272727-232.727273z m-586.472727 279.272727l55.854545 46.545455c4.654545 4.654545 4.654545 9.309091 0 13.963636l-93.090909 79.127273c-4.654545 0-13.963636 0-18.618182-4.654545l-55.854545-46.545455c-4.654545-4.654545-4.654545-9.309091 0-13.963636l93.090909-79.127273c9.309091 0 13.963636 0 18.618182 4.654545z m768 93.09091l-55.854546 46.545454c-4.654545 4.654545-9.309091 4.654545-13.963636 0l-93.090909-79.127273c-4.654545-4.654545-4.654545-9.309091 0-13.963636l55.854545-46.545455c4.654545-4.654545 9.309091-4.654545 13.963637 0l93.090909 79.127273c4.654545 4.654545 4.654545 9.309091 0 13.963637z m-833.163637-791.272728h791.272728v93.090909h-791.272728v-93.090909z m418.909091 977.454546h-93.090909v-139.636364h93.090909v139.636364z"  horiz-adv-x="1024" />

    
    <glyph glyph-name="data_case" unicode="&#59088;" d="M116.363636 593.454545v-605.090909h791.272728v605.090909h-791.272728z m698.181819-512h-605.09091v418.909091h605.09091v-418.909091z m0 605.09091h-605.09091v93.090909h605.09091v-93.090909z m-512-418.909091v139.636363h93.090909v-46.545454h232.727272v46.545454h93.090909v-139.636363h-418.90909z"  horiz-adv-x="1024" />

    
    <glyph glyph-name="data_measure" unicode="&#59087;" d="M83.781818-90.76363600000002c-18.618182 0-32.581818 13.963636-32.581818 32.581818 0 18.618182 13.963636 32.581818 32.581818 32.581818h563.2c18.618182 0 32.581818-13.963636 32.581818-32.581818 0-18.618182-13.963636-32.581818-32.581818-32.581818H83.781818zM153.6 430.545455c-13.963636-13.963636-32.581818-13.963636-46.545455 0-13.963636 13.963636-13.963636 32.581818 0 46.545454L418.909091 793.6c13.963636 13.963636 32.581818 13.963636 46.545454 0 13.963636-13.963636 13.963636-32.581818 0-46.545455L153.6 430.545455zM325.818182 253.672727c-13.963636-13.963636-32.581818-13.963636-46.545455 0-13.963636 13.963636-13.963636 32.581818 0 46.545455l325.818182 325.818182c13.963636 13.963636 32.581818 13.963636 46.545455 0 13.963636-13.963636 13.963636-32.581818 0-46.545455l-325.818182-325.818182z m0 0M451.490909 416.581818c-13.963636 13.963636-13.963636 32.581818 0 46.545455 13.963636 13.963636 32.581818 13.963636 46.545455 0l460.8-460.8c13.963636-13.963636 13.963636-32.581818 0-46.545455-13.963636-13.963636-32.581818-13.963636-46.545455 0l-460.8 460.8z m-37.236364 381.672727c-13.963636 13.963636-13.963636 32.581818 0 46.545455 13.963636 13.963636 32.581818 13.963636 46.545455 0l232.727273-232.727273c13.963636-13.963636 13.963636-32.581818 0-46.545454-13.963636-13.963636-32.581818-13.963636-46.545455 0l-232.727273 232.727272zM65.163636 439.854545c-13.963636 13.963636-13.963636 32.581818 0 46.545455 13.963636 13.963636 32.581818 13.963636 46.545455 0l232.727273-232.727273c13.963636-13.963636 13.963636-32.581818 0-46.545454-13.963636-13.963636-32.581818-13.963636-46.545455 0l-232.727273 232.727272z m0 0"  horiz-adv-x="1024" />

    
    <glyph glyph-name="data_program" unicode="&#59084;" d="M884.363636 337.454545c0-27.927273-18.618182-46.545455-46.545454-46.545454v-139.636364c0-51.2-41.890909-93.090909-93.090909-93.090909h-139.636364c0-46.545455-18.618182-46.545455-46.545454-46.545454s-46.545455 23.272727-46.545455 46.545454v93.090909c0 27.927273 18.618182 46.545455 46.545455 46.545455s46.545455 0 46.545454-46.545455h93.090909c27.927273 0 46.545455 23.272727 46.545455 46.545455v93.090909c-27.927273 0-46.545455 18.618182-46.545455 46.545454s18.618182 46.545455 46.545455 46.545455h93.090909c27.927273 0 46.545455-18.618182 46.545454-46.545455z m93.090909 418.909091v-186.181818c0-51.2-41.890909-93.090909-93.090909-93.090909h-186.181818c-51.2 0-93.090909 41.890909-93.090909 93.090909V756.363636c0 51.2 41.890909 93.090909 93.090909 93.090909h186.181818c51.2 0 93.090909-41.890909 93.090909-93.090909z m-93.090909-46.545454c0 27.927273-18.618182 46.545455-46.545454 46.545454h-93.090909c-27.927273 0-46.545455-18.618182-46.545455-46.545454v-93.090909c0-27.927273 18.618182-46.545455 46.545455-46.545455h93.090909c27.927273 0 46.545455 18.618182 46.545454 46.545455V709.818182zM418.909091 197.818182v-186.181818c0-51.2-41.890909-93.090909-93.090909-93.090909H139.636364c-51.2 0-93.090909 41.890909-93.090909 93.090909v186.181818c0 51.2 41.890909 93.090909 93.090909 93.090909h186.181818c51.2 0 93.090909-41.890909 93.090909-93.090909z m-93.090909-46.545455c0 27.927273-18.618182 46.545455-46.545455 46.545455H186.181818c-27.927273 0-46.545455-18.618182-46.545454-46.545455v-93.090909c0-27.927273 18.618182-46.545455 46.545454-46.545454h93.090909c27.927273 0 46.545455 18.618182 46.545455 46.545454v93.090909z"  horiz-adv-x="1024" />

    
    <glyph glyph-name="data_video" unicode="&#59081;" d="M674.909091 463.127273V686.545455h-605.090909v-605.09091h605.090909v269.963637l279.272727-176.872727v465.454545l-279.272727-176.872727z m-93.090909-288.581818h-418.909091v418.90909h418.909091v-418.90909z m279.272727 167.563636l-102.4 65.163636 102.4 65.163637v-130.327273z"  horiz-adv-x="1024" />

    


  </font>
</defs>
</svg>
